<svg xmlns="http://www.w3.org/2000/svg" width="32" height="32" viewBox="0 0 32 32" fill="none" stroke="#E84142" stroke-width="2" stroke-linecap="round">
  <g transform="translate(16,16)">
    <line x1="0" y1="-13" x2="0" y2="13"/>
    <line x1="-11.26" y1="-6.5" x2="11.26" y2="6.5"/>
    <line x1="-11.26" y1="6.5" x2="11.26" y2="-6.5"/>
    <line x1="0" y1="-13" x2="-3.5" y2="-9.5"/>
    <line x1="0" y1="-13" x2="3.5" y2="-9.5"/>
    <line x1="0" y1="13" x2="-3.5" y2="9.5"/>
    <line x1="0" y1="13" x2="3.5" y2="9.5"/>
    <line x1="-11.26" y1="-6.5" x2="-8.5" y2="-2.5"/>
    <line x1="-11.26" y1="-6.5" x2="-7.26" y2="-7"/>
    <line x1="11.26" y1="6.5" x2="8.5" y2="2.5"/>
    <line x1="11.26" y1="6.5" x2="7.26" y2="7"/>
    <line x1="-11.26" y1="6.5" x2="-7.26" y2="7"/>
    <line x1="-11.26" y1="6.5" x2="-8.5" y2="2.5"/>
    <line x1="11.26" y1="-6.5" x2="7.26" y2="-7"/>
    <line x1="11.26" y1="-6.5" x2="8.5" y2="-2.5"/>
  </g>
</svg>
